# Alias OBJ Model File
# Exported from SketchUp, (c) 2000-2012 Trimble Navigation Limited
# File units = meters

mtllib museoLight2conTexture.mtl

g Mesh1 Model

usemtl Color_D03
v 0 0 -9.2529
vt 364.287 0
vn 1 0 -0
v 0 3.79766 -0
vt 0 149.514
v 0 0 -0
vt 0 0
f 1/1/1 2/2/1 3/3/1

v 0 3.79766 -9.2529
vt 364.287 149.514
f 2/2/1 1/1/1 4/4/1

usemtl BackColor
vn -1 -0 0
f 3/3/2 2/2/2 1/1/2

usemtl FrontColor
vn 0 0 1
v 11.7937 3.79766 -0
vt 464.32 149.514
f 3/3/3 5/5/3 2/2/3

v 11.7937 0 -0
vt 464.32 0
f 5/5/3 3/3/3 6/6/3

usemtl Color_D03
vn -0 -0 -1
f 6/6/4 3/3/4 5/5/4

usemtl Wood_Floor_Dark
vt 3.86933 0
vn 0 1 -0
vt 0 7.58932
f 6/7/5 1/8/5 3/3/5

v 11.7937 0 -9.2529
vt 3.86933 7.58932
f 1/8/5 6/7/5 7/9/5

usemtl BackColor
vn -0 -1 0
vt 0 364.287
f 3/3/6 1/10/6 6/6/6

vt 464.32 364.287
f 7/11/6 6/6/6 1/10/6

usemtl Wood_Floor_Dark
v 11.7937 0 -3.57243
vt 3.86933 2.93014
f 7/9/5 6/7/5 8/12/5

usemtl BackColor
vt 464.32 140.647
f 8/13/6 6/6/6 7/11/6

usemtl Wood_Floor_Dark
v 13.7782 0 -0
vt 4.52042 0
f 9/14/5 8/12/5 6/7/5

v 11.7937 0 -5.08243
vt 3.86933 4.16866
f 8/12/5 9/14/5 10/15/5

usemtl BackColor
vt 542.45 0
f 6/6/6 8/13/6 9/16/6

usemtl Color_D03
vt 140.647 0
f 8/17/1 5/2/1 6/3/1

v 11.7937 2.44323 -3.57243
vt 140.647 96.1902
f 5/2/1 8/17/1 11/18/1

f 6/3/2 5/2/2 8/17/2

usemtl FrontColor
v 13.7782 2.67 -0
vt 542.45 105.118
f 6/6/3 12/19/3 5/5/3

f 12/19/3 6/6/3 9/16/3

usemtl Color_D03
f 9/16/4 6/6/4 12/19/4

f 5/5/4 12/19/4 6/6/4

usemtl FrontColor
v 18.7616 3.79766 -0
vt 738.646 149.514
f 5/5/3 12/19/3 13/20/3

usemtl Color_D03
f 13/20/4 12/19/4 5/5/4

usemtl FrontColor
v 16.9382 2.67 -0
vt 666.86 105.118
f 14/21/3 13/20/3 12/19/3

v 16.9382 0 -0
vt 666.86 0
f 15/22/3 13/20/3 14/21/3

v 18.7616 0 -0
vt 738.646 0
f 13/20/3 15/22/3 16/23/3

usemtl Color_D03
f 16/23/4 15/22/4 13/20/4

usemtl Wood_Floor_Dark
v 18.7616 0 -30.43
vt 6.15538 24.959
vt 5.55717 0
vt 6.15538 0
f 17/24/5 15/25/5 16/26/5

f 17/24/5 9/14/5 15/25/5

v 11.7937 0 -30.43
vt 3.86933 24.959
f 18/27/5 9/14/5 17/24/5

v 11.7937 0 -24.8109
vt 3.86933 20.3502
f 19/28/5 9/14/5 18/27/5

v 11.7937 0 -23.3009
vt 3.86933 19.1117
f 20/29/5 9/14/5 19/28/5

v 11.7937 0 -19.5772
vt 3.86933 16.0575
f 21/30/5 9/14/5 20/29/5

v 11.7937 0 -15.0326
vt 3.86933 12.3299
f 22/31/5 9/14/5 21/30/5

v 11.7937 0 -13.5226
vt 3.86933 11.0914
f 23/32/5 9/14/5 22/31/5

f 7/9/5 9/14/5 23/32/5

f 10/15/5 9/14/5 7/9/5

usemtl BackColor
vt 464.32 200.096
f 10/33/6 9/16/6 8/13/6

f 7/11/6 9/16/6 10/33/6

vt 464.32 532.387
f 23/34/6 9/16/6 7/11/6

vt 464.32 591.836
f 22/35/6 9/16/6 23/34/6

vt 464.32 770.758
f 21/36/6 9/16/6 22/35/6

vt 464.32 917.359
f 20/37/6 9/16/6 21/36/6

vt 464.32 976.808
f 19/38/6 9/16/6 20/37/6

vt 464.32 1198.03
f 18/39/6 9/16/6 19/38/6

vt 738.646 1198.03
f 17/40/6 9/16/6 18/39/6

f 15/22/6 9/16/6 17/40/6

f 16/23/6 15/22/6 17/40/6

usemtl Wood_Floor_Dark
v 18.7616 0 -15.215
vt 6.15538 12.4795
f 17/24/5 16/26/5 24/41/5

usemtl BackColor
vt 738.646 599.016
f 24/42/6 16/23/6 17/40/6

usemtl FrontColor
vt 599.016 0
f 24/43/1 13/2/1 16/3/1

v 18.7616 3.79766 -15.215
vt 599.016 149.514
f 13/2/1 24/43/1 25/44/1

usemtl Color_D03
f 16/3/2 13/2/2 24/43/2

f 25/44/2 24/43/2 13/2/2

v 18.7616 0 -21.5347
vt 847.823 1.36038e-12
vn 1 -1.84172e-15 -8.43278e-16
vt 599.016 1.36038e-12
f 26/45/7 25/44/7 24/46/7

v 18.7616 2.44323 -21.5347
vt 847.823 96.1902
f 25/44/7 26/45/7 27/47/7

vn -1 1.84172e-15 8.43278e-16
f 24/46/8 25/44/8 26/45/8

vt -738.646 149.514
vn 0 0 -1
v 31.462 0 -15.215
vt -1238.66 0
vt -738.646 0
f 25/48/9 28/49/9 24/50/9

v 31.462 3.79766 -15.215
vt -1238.66 149.514
f 28/49/9 25/48/9 29/51/9

usemtl BackColor
vn -0 -0 1
f 24/50/10 28/49/10 25/48/10

usemtl Wood_Floor_Dark
vt 10.3222 12.4795
vt 6.15538 17.663
f 28/52/5 26/53/5 24/41/5

v 18.7616 0 -23.0447
vt 6.15538 18.9015
f 26/53/5 28/52/5 30/54/5

usemtl BackColor
vt 738.646 847.823
vt 1238.66 599.016
f 24/42/6 26/55/6 28/56/6

usemtl Wood_Floor_Dark
f 17/24/5 24/41/5 26/53/5

usemtl BackColor
f 26/55/6 24/42/6 17/40/6

usemtl Wood_Floor_Dark
f 17/24/5 26/53/5 30/54/5

usemtl BackColor
vt 738.646 907.272
f 30/57/6 26/55/6 17/40/6

f 30/57/6 28/56/6 26/55/6

usemtl Wood_Floor_Dark
f 30/54/5 28/52/5 17/24/5

usemtl BackColor
f 17/40/6 28/56/6 30/57/6

usemtl Wood_Floor_Dark
v 25.1118 0 -30.43
vt 8.23878 24.959
f 17/24/5 28/52/5 31/58/5

usemtl BackColor
vt 988.654 1198.03
f 31/59/6 28/56/6 17/40/6

usemtl Wood_Floor_Dark
v 31.462 0 -30.43
vt 10.3222 24.959
f 31/58/5 28/52/5 32/60/5

usemtl BackColor
vt 1238.66 1198.03
f 32/61/6 28/56/6 31/59/6

usemtl Color_D03
vt -599.016 0
vn -1 0 -0
v 31.462 3.79766 -30.43
vt -1198.03 149.514
vt -1198.03 0
f 28/62/11 33/63/11 32/64/11

vt -599.016 149.514
f 33/63/11 28/62/11 29/65/11

usemtl BackColor
vn 1 -0 0
f 29/65/12 28/62/12 33/63/12

f 29/51/10 25/48/10 28/49/10

usemtl FrontColor
vt -738.646 599.016
vn 0 -1 -0
v 25.1118 3.79766 -30.43
vt -988.654 1198.03
vt -1238.66 599.016
f 25/66/13 34/67/13 29/68/13

v 18.7616 3.79766 -30.43
vt -738.646 1198.03
f 34/67/13 25/66/13 35/69/13

usemtl BackColor
vn -0 1 0
f 35/69/14 25/66/14 34/67/14

usemtl Color_D03
vt 1198.03 149.514
f 25/44/7 27/47/7 35/70/7

f 27/47/8 26/45/8 25/44/8

f 35/70/8 27/47/8 25/44/8

v 18.7616 2.44323 -23.0447
vt 907.272 96.1902
f 35/70/7 27/47/7 36/71/7

f 36/71/8 27/47/8 35/70/8

vt 1198.03 1.36038e-12
f 35/70/7 36/71/7 17/72/7

f 17/72/8 36/71/8 35/70/8

vt 907.272 1.36038e-12
f 17/72/7 36/71/7 30/73/7

f 30/73/8 36/71/8 17/72/8

v 18.7616 0.010369 -30.43
vt 1198.03 0.40823
f 35/70/7 17/72/7 37/74/7

f 37/74/8 17/72/8 35/70/8

usemtl FrontColor
v 25.1118 0.010369 -30.43
vt 988.654 0.40823
vt 738.646 0.40823
f 17/23/3 38/75/3 37/76/3

vt 988.654 0
f 38/75/3 17/23/3 31/77/3

usemtl BackColor
f 31/77/4 17/23/4 38/75/4

f 37/76/4 38/75/4 17/23/4

usemtl Color_D03
vt 988.654 149.514
f 34/78/3 37/76/3 38/75/3

f 37/76/3 34/78/3 35/20/3

f 38/75/4 37/76/4 34/78/4

usemtl Wood_Floor_Dark
v 25.1118 0.010369 -45.6331
vt 8.23878 37.4287
f 39/79/5 37/24/5 38/58/5

v 16.2891 0.010369 -30.43
vt 5.3442 24.959
f 39/79/5 40/80/5 37/24/5

v 14.7791 0.010369 -30.43
vt 4.84879 24.959
f 39/79/5 41/81/5 40/80/5

v 11.7937 0.010369 -30.43
f 39/79/5 42/27/5 41/81/5

v 5.89686 0.010369 -45.6331
vt 1.93466 37.4287
f 43/82/5 42/27/5 39/79/5

v 5.89686 0.010369 -30.43
vt 1.93466 24.959
f 42/27/5 43/82/5 44/83/5

usemtl BackColor
vt 232.16 1198.03
vt 232.16 1796.58
f 44/84/6 43/85/6 42/39/6

usemtl Color_D03
vt 1796.58 0.40823
v 5.89686 3.79766 -30.43
f 43/86/1 45/70/1 44/74/1

v 5.89686 3.79766 -45.6331
vt 1796.58 149.514
f 45/70/1 43/86/1 46/87/1

usemtl BackColor
f 44/74/2 45/70/2 43/86/2

usemtl Color_D03
vt 232.16 0.40823
v 11.7937 3.79766 -30.43
vt 232.16 149.514
f 44/88/3 47/5/3 45/89/3

vt 464.32 0.40823
f 47/5/3 44/88/3 42/90/3

f 42/90/4 44/88/4 47/5/4

usemtl FrontColor
v 5.89686 0 -30.43
vt 232.16 0
f 48/91/3 42/90/3 44/88/3

f 42/90/3 48/91/3 18/6/3

usemtl BackColor
f 18/6/4 48/91/4 42/90/4

usemtl Wood_Floor_Dark
f 48/83/5 21/30/5 18/27/5

v 0 0 -30.43
vt 0 24.959
f 49/92/5 21/30/5 48/83/5

v 0 0 -19.5772
vt 0 16.0575
f 21/30/5 49/92/5 50/93/5

usemtl BackColor
vt 0 770.758
vt 0 1198.03
f 50/94/6 49/95/6 21/36/6

f 48/84/6 21/36/6 49/95/6

f 18/39/6 21/36/6 48/84/6

usemtl Wood_Floor_Dark
f 18/27/5 21/30/5 20/29/5

usemtl BackColor
f 20/37/6 21/36/6 18/39/6

usemtl Color_D03
vt 917.359 0
v 11.7937 3.79766 -19.5772
vt 770.758 149.514
vt 770.758 0
f 20/96/1 51/97/1 21/98/1

v 11.7937 2.44323 -23.3009
vt 917.359 96.1902
f 51/97/1 20/96/1 52/99/1

f 21/98/2 51/97/2 20/96/2

f 51/5/3 50/3/3 21/6/3

v 0 3.79766 -19.5772
f 50/3/3 51/5/3 53/2/3

f 21/6/4 50/3/4 51/5/4

usemtl Wood_Floor_Dark
f 50/93/5 7/9/5 21/30/5

f 7/9/5 50/93/5 1/8/5

usemtl BackColor
f 1/10/6 50/94/6 7/11/6

usemtl Color_D03
f 50/98/1 4/4/1 1/1/1

f 4/4/1 50/98/1 53/97/1

usemtl BackColor
f 1/1/2 4/4/2 50/98/2

f 4/4/2 1/1/2 2/2/2

usemtl Color_D03
v 11.7937 3.79766 -9.2529
f 1/3/3 54/5/3 4/2/3

f 54/5/3 1/3/3 7/6/3

f 7/6/4 1/3/4 54/5/4

f 4/2/4 54/5/4 1/3/4

usemtl FrontColor
vt -464.32 364.287
f 54/100/13 2/3/13 4/10/13

vt -464.32 0
f 2/3/13 54/100/13 5/101/13

usemtl BackColor
f 4/10/14 2/3/14 54/100/14

f 5/101/14 54/100/14 2/3/14

usemtl Color_D03
f 5/2/1 11/18/1 54/4/1

f 11/18/2 8/17/2 5/2/2

f 54/4/2 11/18/2 5/2/2

v 11.7937 2.44323 -5.08243
vt 200.096 96.1902
f 54/4/1 11/18/1 55/102/1

f 55/102/2 11/18/2 54/4/2

f 54/4/1 55/102/1 7/1/1

f 7/1/2 55/102/2 54/4/2

vt 200.096 0
f 7/1/1 55/102/1 10/103/1

f 10/103/2 55/102/2 7/1/2

usemtl Wood_Floor_Dark
f 7/9/5 8/12/5 10/15/5

usemtl BackColor
f 10/33/6 8/13/6 7/11/6

usemtl Color_D03
vt 532.387 0
f 23/104/1 54/4/1 7/1/1

v 11.7937 2.44323 -13.5226
vt 532.387 96.1902
f 54/4/1 23/104/1 56/105/1

f 7/1/2 54/4/2 23/104/2

f 56/105/2 23/104/2 54/4/2

f 54/4/1 56/105/1 51/97/1

f 51/97/2 56/105/2 54/4/2

v 11.7937 2.44323 -15.0326
vt 591.836 96.1902
f 51/97/1 56/105/1 57/106/1

f 57/106/2 56/105/2 51/97/2

f 51/97/1 57/106/1 21/98/1

f 21/98/2 57/106/2 51/97/2

vt 591.836 0
f 21/98/1 57/106/1 22/107/1

f 22/107/2 57/106/2 21/98/2

usemtl Wood_Floor_Dark
f 21/30/5 23/32/5 22/31/5

f 21/30/5 7/9/5 23/32/5

usemtl BackColor
f 21/36/6 7/11/6 50/94/6

f 23/34/6 7/11/6 21/36/6

f 22/35/6 23/34/6 21/36/6

usemtl FrontColor
vt -464.32 770.758
f 51/108/13 35/69/13 54/100/13

vt -464.32 1198.03
f 35/69/13 51/108/13 47/109/13

usemtl BackColor
f 47/109/14 51/108/14 35/69/14

usemtl Color_D03
f 51/97/1 52/99/1 47/70/1

f 52/99/2 20/96/2 51/97/2

f 47/70/2 52/99/2 51/97/2

v 11.7937 2.44323 -24.8109
vt 976.808 96.1902
f 47/70/1 52/99/1 58/110/1

f 58/110/2 52/99/2 47/70/2

vt 1198.03 0
f 47/70/1 58/110/1 18/111/1

f 18/111/2 58/110/2 47/70/2

vt 976.808 0
f 18/111/1 58/110/1 19/112/1

f 19/112/2 58/110/2 18/111/2

usemtl Wood_Floor_Dark
f 18/27/5 20/29/5 19/28/5

usemtl BackColor
f 19/38/6 20/37/6 18/39/6

usemtl Color_D03
f 47/70/1 18/111/1 42/74/1

f 42/74/2 18/111/2 47/70/2

usemtl FrontColor
vt 464.32 4.95899e-10
vn 3.07547e-16 4.13928e-13 1
f 18/113/15 37/76/15 42/90/15

vt 738.646 4.95899e-10
f 37/76/15 18/113/15 17/114/15

usemtl BackColor
vn -3.07547e-16 -4.13928e-13 -1
f 17/114/16 18/113/16 37/76/16

f 42/90/16 37/76/16 18/113/16

usemtl FrontColor
vt 641.304 0.40823
f 42/90/15 37/76/15 40/115/15

usemtl BackColor
f 40/115/16 37/76/16 42/90/16

usemtl Color_D03
vn 5.96894e-16 -5.39105e-16 1
f 35/20/17 40/115/17 37/76/17

v 16.2891 2.4536 -30.43
vt 641.304 96.5984
f 40/115/17 35/20/17 59/116/17

vn -5.96894e-16 5.39105e-16 -1
f 37/76/18 40/115/18 35/20/18

usemtl BackColor
vt 641.304 1198.03
vt 988.654 1796.58
f 37/40/6 40/117/6 39/118/6

vt 581.855 1198.03
f 40/117/6 41/119/6 39/118/6

usemtl FrontColor
vt 581.855 0.40823
f 42/90/15 40/115/15 41/120/15

usemtl BackColor
f 41/120/16 40/115/16 42/90/16

usemtl Color_D03
v 14.7791 2.4536 -30.43
vt 581.855 96.5984
f 60/121/17 42/90/17 41/120/17

f 42/90/17 60/121/17 47/5/17

f 41/120/18 42/90/18 60/121/18

usemtl BackColor
f 41/119/6 42/39/6 39/118/6

f 39/118/6 42/39/6 43/85/6

usemtl Color_D03
v 25.1118 3.79766 -45.6331
f 61/78/3 43/88/3 39/75/3

f 43/88/3 61/78/3 46/89/3

usemtl BackColor
f 39/75/4 43/88/4 61/78/4

f 46/89/4 61/78/4 43/88/4

usemtl FrontColor
vt -988.654 1796.58
vt -232.16 1198.03
vt -232.16 1796.58
f 61/122/13 45/123/13 46/124/13

f 45/123/13 61/122/13 47/109/13

usemtl BackColor
f 46/124/14 45/123/14 61/122/14

usemtl Materiale4
v 5.89686 3.80803 -30.43
vt 1198.03 149.922
f 46/87/1 62/125/1 45/70/1

v 5.89686 3.80803 -45.6331
vt 1796.58 149.922
f 62/125/1 46/87/1 63/126/1

usemtl BackColor
f 45/70/2 62/125/2 46/87/2

usemtl Materiale2
v 11.7937 3.80803 -30.43
vt 464.32 149.922
vt 232.16 149.922
f 45/89/3 64/127/3 62/128/3

f 64/127/3 45/89/3 47/5/3

f 47/5/4 45/89/4 64/127/4

usemtl Color_D03
f 45/89/4 47/5/4 44/88/4

usemtl BackColor
f 47/109/14 61/122/14 45/123/14

usemtl FrontColor
f 47/109/13 61/122/13 35/69/13

usemtl BackColor
f 35/69/14 61/122/14 47/109/14

usemtl FrontColor
f 35/69/13 61/122/13 34/67/13

usemtl BackColor
f 34/67/14 61/122/14 35/69/14

usemtl Color_D03
vt -1796.58 149.514
vt -1198.03 0.40823
f 61/129/11 38/130/11 34/63/11

vt -1796.58 0.40823
f 38/130/11 61/129/11 39/131/11

usemtl BackColor
f 34/63/12 38/130/12 61/129/12

usemtl Color_D03
vt 1238.66 149.514
f 38/75/3 33/132/3 34/78/3

f 31/77/3 33/132/3 38/75/3

vt 1238.66 0
f 33/132/3 31/77/3 32/133/3

usemtl BackColor
f 32/133/4 31/77/4 33/132/4

f 38/75/4 33/132/4 31/77/4

f 34/78/4 33/132/4 38/75/4

usemtl FrontColor
vt -1238.66 1198.03
f 29/68/13 34/67/13 33/134/13

usemtl BackColor
f 29/68/14 34/67/14 25/66/14

f 33/134/14 34/67/14 29/68/14

f 32/64/12 33/63/12 28/62/12

f 39/131/12 61/129/12 38/130/12

usemtl FrontColor
v 25.1118 3.79766 -45.6568
vt -1797.51 149.514
f 65/135/11 39/131/11 61/129/11

v 25.1118 0.010369 -45.6568
vt -1797.51 0.40823
f 39/131/11 65/135/11 66/136/11

usemtl BackColor
f 61/129/12 39/131/12 65/135/12

f 66/136/12 65/135/12 39/131/12

f 38/59/6 37/40/6 39/118/6

usemtl Color_D03
f 35/20/4 34/78/4 37/76/4

usemtl Materiale2
f 64/127/3 47/5/3 35/20/3

f 35/20/4 47/5/4 64/127/4

usemtl Color_D03
f 47/5/17 60/121/17 35/20/17

f 47/5/18 60/121/18 42/90/18

f 35/20/18 60/121/18 47/5/18

f 59/116/17 35/20/17 60/121/17

f 59/116/18 35/20/18 40/115/18

f 60/121/18 35/20/18 59/116/18

usemtl FrontColor
f 51/108/13 45/123/13 47/109/13

f 53/94/13 45/123/13 51/108/13

v 0 3.79766 -30.43
f 45/123/13 53/94/13 67/95/13

usemtl BackColor
f 67/95/14 53/94/14 45/123/14

usemtl Color_D03
v 0 0.010369 -30.43
f 53/97/1 68/74/1 67/70/1

f 68/74/1 53/97/1 50/98/1

usemtl BackColor
f 50/98/2 53/97/2 68/74/2

usemtl Color_D03
f 53/2/4 51/5/4 50/3/4

usemtl BackColor
f 51/108/14 45/123/14 53/94/14

f 47/109/14 45/123/14 51/108/14

usemtl FrontColor
f 51/108/13 4/10/13 53/94/13

f 4/10/13 51/108/13 54/100/13

usemtl BackColor
f 53/94/14 4/10/14 51/108/14

f 53/97/2 50/98/2 4/4/2

f 54/100/14 51/108/14 4/10/14

f 54/100/14 35/69/14 51/108/14

usemtl FrontColor
f 54/100/13 35/69/13 5/101/13

usemtl BackColor
f 5/101/14 35/69/14 54/100/14

usemtl FrontColor
f 5/101/13 35/69/13 13/50/13

usemtl BackColor
f 13/50/14 35/69/14 5/101/14

usemtl FrontColor
f 13/50/13 35/69/13 25/66/13

usemtl BackColor
f 25/66/14 35/69/14 13/50/14

f 67/70/2 68/74/2 53/97/2

usemtl Color_D03
vt 0 0.40823
f 68/137/3 45/89/3 67/2/3

f 45/89/3 68/137/3 44/88/3

f 44/88/4 68/137/4 45/89/4

f 67/2/4 45/89/4 68/137/4

usemtl Materiale2
f 62/128/3 67/2/3 45/89/3

v 0 3.80803 -30.43
vt 0 149.922
f 67/2/3 62/128/3 69/138/3

f 45/89/4 67/2/4 62/128/4

f 69/138/4 62/128/4 67/2/4

f 62/128/4 64/127/4 45/89/4

usemtl BackColor
f 63/126/2 46/87/2 62/125/2

f 46/87/2 43/86/2 45/70/2

usemtl Color_D03
f 2/2/4 5/5/4 3/3/4

usemtl BackColor
f 44/88/4 42/90/4 48/91/4

usemtl Color_D03
f 14/21/4 13/20/4 15/22/4

f 12/19/4 13/20/4 14/21/4

